<svg width="390" height="109" viewBox="0 0 390 109" fill="none" xmlns="http://www.w3.org/2000/svg">
<path d="M120.149 54.3196C120.149 41.1211 130.105 30.3042 143.957 30.3042C150.448 30.3042 154.989 32.0328 158.884 34.8446C159.338 35.1662 159.72 35.5801 160.004 36.0594C160.287 36.5386 160.466 37.0724 160.529 37.6257C160.592 38.179 160.538 38.7394 160.369 39.2702C160.201 39.8009 159.922 40.2901 159.551 40.7057C158.868 41.4294 157.952 41.8904 156.964 42.0084C155.976 42.1263 154.977 41.8937 154.143 41.3511C151.217 39.125 147.648 37.9068 143.971 37.879C135.069 37.879 128.607 45.2313 128.607 54.3196V54.5421C128.607 63.6304 135.098 70.9827 143.971 70.9827C147.928 71.0238 151.767 69.6414 154.788 67.0877C155.523 66.5273 156.441 66.2615 157.362 66.3425C158.283 66.4235 159.14 66.8453 159.767 67.5254C160.136 67.9012 160.425 68.3486 160.615 68.8402C160.806 69.3317 160.893 69.857 160.873 70.3837C160.853 70.9104 160.725 71.4275 160.498 71.903C160.271 72.3786 159.949 72.8026 159.551 73.1491C155.441 76.176 150.649 78.1272 143.756 78.1272C130.105 78.1272 120.149 67.5254 120.149 54.3196Z" fill="#007BC2"/>
<path d="M163.217 60.1658C163.202 57.7296 163.675 55.3152 164.607 53.0643C165.539 50.8134 166.911 48.7713 168.643 47.058C170.375 45.3448 172.432 43.9948 174.693 43.0874C176.953 42.18 179.373 41.7335 181.809 41.774C192.41 41.774 200.416 49.9943 200.416 59.9506V60.1658C200.416 70.1147 192.41 78.3424 181.594 78.3424C171.007 78.1272 163.217 69.8995 163.217 60.1658ZM192.425 60.1658C192.425 53.8893 188.1 48.696 181.608 48.696C175.117 48.696 171.007 53.6741 171.007 59.7355V59.9506C171.007 66.0046 175.332 71.1979 181.608 71.1979C188.315 71.1979 192.425 66.0046 192.425 60.1658Z" fill="#007BC2"/>
<path d="M209.303 30.9492C209.843 30.9492 210.378 31.0557 210.878 31.2627C211.377 31.4698 211.83 31.7732 212.212 32.1556C212.594 32.5381 212.896 32.992 213.102 33.4915C213.309 33.9911 213.414 34.5263 213.413 35.0667V50.2089H235.485V35.0667C235.461 34.5118 235.55 33.9578 235.746 33.4381C235.942 32.9185 236.242 32.4439 236.626 32.0429C237.01 31.6419 237.472 31.3228 237.983 31.1048C238.493 30.8868 239.043 30.7744 239.599 30.7744C240.154 30.7744 240.704 30.8868 241.215 31.1048C241.725 31.3228 242.187 31.6419 242.571 32.0429C242.956 32.4439 243.255 32.9185 243.451 33.4381C243.647 33.9578 243.736 34.5118 243.712 35.0667V77.2587H235.485V57.7689H213.413V77.2439H205.193V35.0667C205.23 33.9877 205.674 32.9627 206.437 32.1986C207.2 31.4344 208.224 30.988 209.303 30.9492V30.9492Z" fill="#007BC2"/>
<path d="M325.07 29.0058C325.61 29.0049 326.145 29.1104 326.645 29.3166C327.144 29.5227 327.598 29.8253 327.981 30.207C328.363 30.5888 328.667 31.0422 328.874 31.5414C329.081 32.0405 329.187 32.5756 329.187 33.1159V77.4743H321.175V33.1159C321.116 32.5802 321.174 32.0381 321.346 31.5272C321.518 31.0164 321.799 30.5491 322.169 30.1579C322.54 29.7667 322.992 29.461 323.492 29.262C323.993 29.063 324.532 28.9756 325.07 29.0058V29.0058Z" fill="#007BC2"/>
<path d="M336.755 67.7401V49.3483H332.415V42.419H336.74V36.7954C336.785 35.7345 337.238 34.7321 338.005 33.9974C338.771 33.2627 339.792 32.8525 340.854 32.8525C341.915 32.8525 342.936 33.2627 343.703 33.9974C344.469 34.7321 344.922 35.7345 344.968 36.7954V42.419H354.271V49.3483H344.982V66.4121C344.982 69.4391 346.466 70.7374 349.308 70.7374H350.606C351.054 70.657 351.513 70.6744 351.954 70.7884C352.394 70.9024 352.804 71.1103 353.157 71.3979C353.509 71.6854 353.795 72.0458 353.995 72.4543C354.195 72.8628 354.304 73.3097 354.316 73.7644V74.2021C354.349 74.8209 354.175 75.4332 353.822 75.9424C353.468 76.4515 352.956 76.8285 352.364 77.0139C350.709 77.6505 348.943 77.9457 347.171 77.8819C340.865 77.9116 336.755 75.3075 336.755 67.7401Z" fill="#007BC2"/>
<path d="M361.86 29.0059C362.951 29.0059 363.996 29.4389 364.767 30.2097C365.538 30.9805 365.971 32.0259 365.971 33.116V47.8279C368.13 44.5858 371.379 41.774 376.788 41.774C384.578 41.774 389.341 46.9673 389.341 55.1876V77.4446H381.335V57.5691C381.335 52.1606 378.516 49.1262 373.761 49.1262C369.213 49.1262 365.971 52.3758 365.971 57.7842V77.4743H357.965V33.116C357.942 32.5879 358.024 32.0605 358.209 31.5652C358.393 31.0698 358.676 30.6168 359.039 30.2331C359.403 29.8494 359.84 29.543 360.325 29.3321C360.81 29.1213 361.332 29.0103 361.86 29.0059V29.0059Z" fill="#007BC2"/>
<path d="M266.645 78.3427C256.696 78.1276 248.906 70.7679 248.906 59.951V59.2981C248.906 49.9946 256.043 41.9895 265.347 41.7743C276.817 41.5592 282.663 50.4249 282.663 60.5964C282.698 61.3252 282.626 62.0552 282.448 62.7628H256.696C257.557 68.3864 261.674 71.6656 266.868 71.6656C269.514 71.7067 272.1 70.8692 274.22 69.2841C274.825 68.84 275.564 68.6188 276.313 68.658C277.063 68.6972 277.775 68.9944 278.33 69.4992C278.688 69.8078 278.975 70.1898 279.172 70.6194C279.369 71.0489 279.47 71.5158 279.47 71.9883C279.47 72.4608 279.369 72.9277 279.172 73.3572C278.975 73.7868 278.688 74.1688 278.33 74.4774C275.012 77.1056 270.876 78.4842 266.645 78.3724M274.873 57.5991C274.435 52.4058 271.163 48.2957 265.97 48.2957C260.992 48.2957 257.527 51.9681 256.882 57.5991H274.873Z" fill="#007BC2"/>
<path d="M307.976 77.4743V73.149C306.593 74.769 304.863 76.0575 302.915 76.9191C300.967 77.7808 298.85 78.1937 296.721 78.1271C290.044 78.1271 284.176 74.4176 284.176 67.3028V67.0876C284.176 59.2977 290.23 55.6178 298.272 55.6178C301.576 55.5685 304.866 56.07 308.006 57.1016V56.4562C308.006 51.6932 304.979 48.8813 299.348 48.8813C296.999 48.8921 294.665 49.2573 292.426 49.9645C291.565 50.2518 290.625 50.1853 289.813 49.7798C289.001 49.3742 288.384 48.6627 288.097 47.8019C287.809 46.941 287.876 46.0013 288.281 45.1895C288.687 44.3776 289.399 43.7602 290.259 43.4729C293.512 42.2648 296.962 41.6784 300.431 41.7442C310.817 41.7442 315.796 47.1527 315.796 56.4562V77.2294H308.006L307.976 77.4743ZM308.191 62.7623C306.247 61.8943 303.213 61.464 300.186 61.464C295.208 61.464 292.181 63.4078 292.181 66.8725V67.0876C292.181 70.3372 295.208 72.2809 298.858 72.2809C304.051 72.2809 308.161 69.254 308.161 64.9287V62.7623H308.191Z" fill="#007BC2"/>
<path d="M54.5705 108.27C40.2991 108.139 26.6567 102.378 16.6113 92.2397C6.56591 82.1017 0.930176 68.407 0.930176 54.135C0.930176 39.863 6.56591 26.1683 16.6113 16.0303C26.6567 5.89222 40.2991 0.131012 54.5705 0C64.0733 0.0118777 73.4065 2.51796 81.6372 7.26773C89.8678 12.0175 96.7075 18.8445 101.472 27.0664C102.221 28.3637 102.707 29.7958 102.903 31.281C103.098 32.7661 102.999 34.2752 102.611 35.7221C102.223 37.169 101.554 38.5253 100.642 39.7136C99.7304 40.902 98.5933 41.899 97.2959 42.6479C94.6759 44.1603 91.5623 44.5699 88.6402 43.7867C85.7181 43.0034 83.2268 41.0915 81.7144 38.4714C78.9596 33.7145 75.0044 29.7641 70.2442 27.015C65.4841 24.2659 60.0857 22.8143 54.5888 22.8055C46.3463 22.9049 38.4752 26.249 32.6818 32.1128C26.8884 37.9765 23.6395 45.8874 23.6395 54.1304C23.6395 62.3735 26.8884 70.2844 32.6818 76.1481C38.4752 82.0119 46.3463 85.356 54.5888 85.4554C60.0851 85.4461 65.4828 83.9949 70.2427 81.2467C75.0027 78.4984 78.9583 74.5494 81.7144 69.7941C83.2268 67.174 85.7181 65.262 88.6402 64.4788C91.5623 63.6955 94.6759 64.1052 97.2959 65.6176C99.916 67.13 101.828 69.6212 102.611 72.5433C103.394 75.4654 102.985 78.579 101.472 81.1991C96.7081 89.4218 89.8686 96.2497 81.638 101C73.4073 105.751 64.0738 108.258 54.5705 108.27V108.27Z" fill="#007BC2"/>
<path d="M64.6936 32.7964H44.9082V75.4694H64.6936V32.7964Z" fill="#DEDC00"/>
<path d="M75.9614 64.0281V44.2427H33.2885V64.0281H75.9614Z" fill="#DEDC00"/>
<path style="mix-blend-mode:multiply" d="M64.6936 38.1069H44.9082V44.2428H64.6936V38.1069Z" fill="url(#paint0_linear_1201_7844)"/>
<path style="mix-blend-mode:multiply" d="M44.908 70.1636H64.6934V64.0277H44.908V70.1636Z" fill="url(#paint1_linear_1201_7844)"/>
<defs>
<linearGradient id="paint0_linear_1201_7844" x1="54.8032" y1="44.2428" x2="54.8032" y2="38.1069" gradientUnits="userSpaceOnUse">
<stop stop-color="#DEDC00"/>
<stop offset="1" stop-color="#FFFDEC"/>
</linearGradient>
<linearGradient id="paint1_linear_1201_7844" x1="54.7984" y1="64.0277" x2="54.7984" y2="70.1636" gradientUnits="userSpaceOnUse">
<stop stop-color="#DEDC00"/>
<stop offset="1" stop-color="#FFFDEC"/>
</linearGradient>
</defs>
</svg>
